<svg viewBox="0 0 1024 1024" xmlns="http://www.w3.org/2000/svg">
  <path fill="currentColor" d="M573.8 96c-89.6 0-163.2 72-163.2 160 0 77.6 56 142.4 130.4 157.6v44.8c0 8.8 7.2 16 16 16h33.6c8.8 0 16-7.2 16-16v-44.8c74.4-15.2 130.4-80 130.4-157.6 0-88-73.6-160-163.2-160z m-80 160c0-44 36.8-80 80-80s80 36 80 80-36.8 80-80 80-80-36-80-80z m310.4 358.4l-352-70.4c-8.8-1.6-17.6 4-19.2 12.8l-25.6 128c-1.6 8.8 4 17.6 12.8 19.2l352 70.4c8.8 1.6 17.6-4 19.2-12.8l25.6-128c1.6-8.8-4-17.6-12.8-19.2z m-310.4 134.4l-352-70.4c-8.8-1.6-17.6 4-19.2 12.8l-25.6 128c-1.6 8.8 4 17.6 12.8 19.2l352 70.4c8.8 1.6 17.6-4 19.2-12.8l25.6-128c1.6-8.8-4-17.6-12.8-19.2z"/>
</svg>
